<?xml version="1.0" encoding="UTF-8" standalone="no"?>
<svg
   xmlns:dc="http://purl.org/dc/elements/1.1/"
   xmlns:cc="http://creativecommons.org/ns#"
   xmlns:rdf="http://www.w3.org/1999/02/22-rdf-syntax-ns#"
   xmlns:svg="http://www.w3.org/2000/svg"
   xmlns="http://www.w3.org/2000/svg"
   viewBox="0 0 320.90668 314.25333"
   height="314.25333"
   width="320.90668"
   xml:space="preserve"
   id="svg2"
   version="1.1"><metadata
     id="metadata8"><rdf:RDF><cc:Work
         rdf:about=""><dc:format>image/svg+xml</dc:format><dc:type
           rdf:resource="http://purl.org/dc/dcmitype/StillImage" /></cc:Work></rdf:RDF></metadata><defs
     id="defs6" /><g
     transform="matrix(1.3333333,0,0,-1.3333333,0,314.25333)"
     id="g10"><g
       transform="scale(0.1)"
       id="g12"><path
         id="path14"
         style="fill:#ffffff;fill-opacity:1;fill-rule:nonzero;stroke:none"
         d="m 2056.01,1735.02 c 0,-16.68 -13.48,-30.15 -30.15,-30.15 h -240.7 c -16.61,0 -30.09,13.47 -30.09,30.15 v 240.69 c 0,16.61 13.48,30.09 30.09,30.09 h 240.7 c 16.67,0 30.15,-13.48 30.15,-30.09 z m -30.15,371.19 h -240.7 c -71.96,0 -130.5,-58.54 -130.5,-130.5 v -240.69 c 0,-72.02 58.54,-130.25 130.5,-130.25 h 240.7 c 72.02,0 130.25,58.23 130.25,130.25 v 240.69 c 0,71.96 -58.23,130.5 -130.25,130.5 v 0" /><path
         id="path16"
         style="fill:#ffffff;fill-opacity:1;fill-rule:nonzero;stroke:none"
         d="m 1563.15,1504.35 c -105.31,63.18 -227.98,100.42 -359.73,100.42 -131.44,0 -254.361,-37.24 -359.666,-100.42 h -743.34 v 339.35 c 0,227.73 184.348,412.82 411.063,412.82 H 1895.36 c 226.71,0 411.37,-185.09 411.37,-412.82 v -339.35 z m 242.13,-601.87 c 0,-331.769 -270.09,-601.55 -601.86,-601.55 -331.775,0 -601.557,269.781 -601.557,601.55 0,332.03 269.782,601.87 601.557,601.87 331.77,0 601.86,-269.84 601.86,-601.87 z m 501.45,-389.5 c 0,-227.468 -184.66,-412.57 -411.37,-412.57 H 511.477 c -226.715,0 -411.063,185.102 -411.063,412.57 v 890.95 H 713 C 582.746,1276.63 501.449,1098.86 501.449,902.48 c 0,-387.05 314.848,-701.96 701.971,-701.96 387.12,0 701.97,314.91 701.97,701.96 0,196.38 -81.05,374.15 -211.55,501.45 h 612.89 z M 1895.36,2356.94 H 511.477 C 229.41,2356.94 0,2126.77 0,1843.7 V 512.98 C 0,230.16 229.41,0 511.477,0 H 1895.36 c 282.06,0 511.48,230.16 511.48,512.98 V 1843.7 c 0,283.07 -229.42,513.24 -511.48,513.24 v 0" /><path
         id="path18"
         style="fill:#ffffff;fill-opacity:1;fill-rule:nonzero;stroke:none"
         d="m 1554.56,902.48 c 0,-193.371 -157.46,-350.82 -351.14,-350.82 -193.44,0 -350.83,157.449 -350.83,350.82 0,193.69 157.39,351.14 350.83,351.14 193.68,0 351.14,-157.45 351.14,-351.14 z m -802.384,0 c 0,-248.718 202.461,-451.242 451.244,-451.242 249.03,0 451.24,202.524 451.24,451.242 0,249.04 -202.21,451.56 -451.24,451.56 -248.783,0 -451.244,-202.52 -451.244,-451.56 v 0" /></g></g></svg>