<?xml version="1.0" encoding="UTF-8" standalone="no"?>
<svg
   xmlns:dc="http://purl.org/dc/elements/1.1/"
   xmlns:cc="http://creativecommons.org/ns#"
   xmlns:rdf="http://www.w3.org/1999/02/22-rdf-syntax-ns#"
   xmlns:svg="http://www.w3.org/2000/svg"
   xmlns="http://www.w3.org/2000/svg"
   viewBox="0 0 546.1333 546.1333"
   height="546.1333"
   width="546.1333"
   xml:space="preserve"
   id="svg2"
   version="1.1"><metadata
     id="metadata8"><rdf:RDF><cc:Work
         rdf:about=""><dc:format>image/svg+xml</dc:format><dc:type
           rdf:resource="http://purl.org/dc/dcmitype/StillImage" /></cc:Work></rdf:RDF></metadata><defs
     id="defs6" /><g
     transform="matrix(1.3333333,0,0,-1.3333333,0,546.13333)"
     id="g10"><g
       transform="scale(0.1)"
       id="g12"><path
         id="path14"
         style="fill:#ffffff;fill-opacity:1;fill-rule:nonzero;stroke:none"
         d="m 3959.45,341.371 c 0,-116.051 -88.75,-204.801 -204.8,-204.801 H 2730.66 v 1228.79 h 682.66 v 819.21 h -682.66 v 341.33 c 0,40.94 27.31,68.25 68.29,68.25 h 682.65 v 819.21 h -757.77 c -457.38,-40.97 -812.38,-430.07 -812.38,-887.46 v -341.33 h -546.14 v -819.21 h 546.14 V 136.57 H 341.328 C 225.27,136.57 136.52,225.32 136.52,341.371 V 3754.69 c 0,116.06 88.75,204.81 204.808,204.81 H 3754.69 c 116.05,0 204.76,-88.75 204.76,-204.81 z M 2048.01,136.57 v 1365.31 h -546.13 v 546.13 h 546.13 v 477.89 c 0,389.1 300.35,716.8 682.65,750.9 h 614.42 v -546.13 h -546.13 c -116.06,0 -204.81,-88.71 -204.81,-204.77 V 2048.01 H 3276.8 V 1501.88 H 2594.14 V 136.57 Z M 3754.65,4096.02 H 341.328 C 150.199,4096.02 0,3945.82 0,3754.69 V 341.332 C 0,150.199 150.199,0 341.328,0 H 3754.69 c 191.13,0 341.33,150.199 341.33,341.371 V 3754.69 c 0,191.13 -150.2,341.33 -341.37,341.33 v 0" /></g></g></svg>